<svg xmlns="http://www.w3.org/2000/svg" xmlns:xlink="http://www.w3.org/1999/xlink" width="640" height="640"><defs><path d="M623.5 322.38c0 168.2-137.45 304.76-306.75 304.76S10 490.58 10 322.38 147.45 17.62 316.75 17.62 623.5 154.18 623.5 322.38z" id="a"/><path d="M0 320c0 176.45 143.55 320 320 320s320-143.55 320-320S496.45 0 320 0 0 143.55 0 320zm21.33 0C21.33 155.32 155.32 21.33 320 21.33S618.67 155.32 618.67 320 484.68 618.67 320 618.67 21.33 484.68 21.33 320z" id="b"/><path d="M252.29 151.19a10.69 10.69 0 00-11-.62 10.668 10.668 0 00-5.67 9.43v320c0 3.95 2.19 7.58 5.68 9.43 1.56.83 3.28 1.23 4.99 1.23 2.1 0 4.2-.63 6-1.85 23.47-16 211.2-144 234.67-160 2.91-1.99 4.66-5.28 4.66-8.81 0-3.53-1.75-6.83-4.66-8.81-46.94-32-211.2-144-234.67-160zm4.66 29L462.02 320 256.95 459.81V180.19z" id="e"/><path d="M251.9 471.9L473.81 320 254.76 169.05 251.9 471.9z" id="g"/></defs><use xlink:href="#a" fill="#750909"/><use xlink:href="#b" fill="#fff"/><use xlink:href="#b" fill-opacity="0" stroke="#000" stroke-opacity="0"/><use xlink:href="#c" fill-opacity="0" stroke="#000"/><use xlink:href="#d" fill-opacity="0" stroke="#000"/><use xlink:href="#e" fill="#fff"/><use xlink:href="#e" fill-opacity="0" stroke="#000" stroke-opacity="0"/><g><use xlink:href="#f" fill-opacity="0" stroke="#000"/></g><g><use xlink:href="#g" fill="#fff"/><use xlink:href="#g" fill-opacity="0" stroke="#000" stroke-opacity="0"/></g></svg>